<?xml version="1.0" encoding="UTF-8" standalone="no"?><!DOCTYPE svg PUBLIC "-//W3C//DTD SVG 1.1//EN" "http://www.w3.org/Graphics/SVG/1.1/DTD/svg11.dtd"><svg width="100%" height="100%" viewBox="0 0 2240 2240" version="1.1" xmlns="http://www.w3.org/2000/svg" xmlns:xlink="http://www.w3.org/1999/xlink" xml:space="preserve" xmlns:serif="http://www.serif.com/" style="fill-rule:evenodd;clip-rule:evenodd;stroke-linejoin:round;stroke-miterlimit:2;"><rect id="Default" x="0" y="0" width="2240" height="2240" style="fill:none;"/><g id="Default1" serif:id="Default"><path id="_3-5--7-7" serif:id="3-5, 7-7" d="M1280,1920l320,0l0,320l-960,0l0,-320l320,0l0,-320l320,0l0,320Z" style="fill:#e5c31a;"/><path id="_6-7--6-6" serif:id="6-7, 6-6" d="M2240,640l0,1280l-640,0l0,-320l320,0l0,-960l320,0Z" style="fill:#268fd9;"/><rect id="_5-5--4-4" serif:id="5-5, 4-4" x="1280" y="960" width="320" height="320" style="fill:#e5c31a;"/><rect id="_3-3--4-4" serif:id="3-3, 4-4" x="640" y="960" width="320" height="320" style="fill:#e5c31a;"/><rect id="_4-4--3-3" serif:id="4-4, 3-3" x="960" y="640" width="320" height="320" style="fill:#268fd9;"/><path id="_1-2--6-6" serif:id="1-2, 6-6" d="M0,1920l0,-1280l320,0l0,960l320,0l0,320l-640,0Z" style="fill:#268fd9;"/><rect id="_6-6--2-2" serif:id="6-6, 2-2" x="1600" y="320" width="320" height="320" style="fill:#e5c31a;"/><rect id="_2-2--2-2" serif:id="2-2, 2-2" x="320" y="320" width="320" height="320" style="fill:#e5c31a;"/><rect id="_3-5--1-1" serif:id="3-5, 1-1" x="640" y="0" width="960" height="320" style="fill:#268fd9;"/></g></svg>